<svg version="1.1" id="Layer_1" xmlns="http://www.w3.org/2000/svg" xmlns:xlink="http://www.w3.org/1999/xlink" x="0px" y="0px"
	 width="100%" viewBox="0 0 486 486" enable-background="new 0 0 486 486" xml:space="preserve">
<path fill="#000000" opacity="1.000000" stroke="none" 
	d="
M487.000000,436.000000 
	C487.000000,452.995911 487.000000,469.991821 487.000000,486.990784 
	C325.043060,486.993866 163.086121,486.993866 1.064592,486.993866 
	C1.064592,325.082062 1.064592,163.164078 1.064592,1.123049 
	C162.878922,1.123049 324.757965,1.123049 487.000000,1.123049 
	C487.000000,98.022339 487.000000,195.045135 486.531342,292.533997 
	C472.563904,292.998016 459.065155,292.996918 445.566376,292.993500 
	C438.008636,292.991577 438.006500,292.989838 438.006439,285.200256 
	C438.005859,209.707230 437.964325,134.214142 438.107330,58.721386 
	C438.116150,54.066360 436.779755,52.805122 432.218109,52.891621 
	C418.224915,53.156971 404.223022,52.961533 390.149628,52.947510 
	C390.074768,52.949764 390.079132,52.800060 390.068604,52.344131 
	C390.040619,37.923119 389.890747,23.956137 390.090363,9.994154 
	C390.146759,6.048839 388.963928,4.891075 385.012726,4.912345 
	C356.584076,5.065379 328.153717,5.073364 299.725159,4.913412 
	C295.185883,4.887871 293.936676,6.813084 293.974182,10.868689 
	C294.074188,21.674290 293.940643,32.482117 294.051178,43.287510 
	C294.081421,46.241688 294.645538,49.190407 294.794922,52.262463 
	C294.436798,52.587547 294.252136,52.795128 293.598022,53.001953 
	C279.961121,52.996601 266.797485,52.993496 253.633820,52.994751 
	C246.165009,52.995468 246.012711,53.131393 246.010666,60.481014 
	C246.002975,88.308029 245.938141,116.135414 246.086273,143.961639 
	C246.107086,147.872513 245.031525,149.162491 241.023987,149.081192 
	C229.031631,148.837845 217.031204,148.997314 205.033920,148.992538 
	C198.019974,148.989761 198.009125,148.983780 198.008011,142.169281 
	C198.003418,114.342262 197.893036,86.514336 198.115677,58.689098 
	C198.153427,53.971958 196.690063,52.816147 192.186752,52.895119 
	C178.195053,53.140499 164.195587,52.944202 150.133423,52.925438 
	C150.067719,52.931614 150.079178,52.800106 150.068634,52.344177 
	C150.040451,37.756294 149.928391,23.623383 150.072235,9.493077 
	C150.107742,6.006599 148.996216,4.916755 145.509521,4.930552 
	C116.746758,5.044368 87.983101,5.050724 59.220371,4.931694 
	C55.139996,4.914807 53.985939,6.810670 53.998169,10.375909 
	C54.033527,20.683990 53.929295,30.993210 54.050556,41.299973 
	C54.093094,44.915806 54.631489,48.525810 54.674400,52.310631 
	C54.293804,52.664188 54.182270,52.845592 53.597637,53.016914 
	C39.960796,53.002560 26.797052,52.996159 13.633307,52.994835 
	C6.010690,52.994068 6.007994,52.997746 6.007963,60.722557 
	C6.007407,199.360107 6.007557,337.997681 6.007699,476.635223 
	C6.007700,477.635010 6.082486,478.641022 5.997669,479.633453 
	C5.703361,483.077148 7.772199,484.456573 10.706834,484.884094 
	C12.340974,485.122131 14.032049,484.989716 15.697466,484.989746 
	C153.501862,484.992889 291.306274,484.992706 429.110657,484.992401 
	C430.443695,484.992401 431.776764,484.984161 433.109802,484.986786 
	C436.601044,484.993683 438.108582,483.456696 438.063812,479.773376 
	C437.889648,465.445435 437.944641,451.114716 438.021790,436.567566 
	C438.129181,436.350128 438.491577,436.027679 438.882874,436.045837 
	C455.182770,436.042664 471.091370,436.021332 487.000000,436.000000 
z"/>
<path fill="#0E0D0E" opacity="1.000000" stroke="none" 
	d="
M390.224487,52.945251 
	C404.223022,52.961533 418.224915,53.156971 432.218109,52.891621 
	C436.779755,52.805122 438.116150,54.066360 438.107330,58.721386 
	C437.964325,134.214142 438.005859,209.707230 438.006439,285.200256 
	C438.006500,292.989838 438.008636,292.991577 445.566376,292.993500 
	C459.065155,292.996918 472.563904,292.998016 486.531342,293.000061 
	C487.000000,340.354218 487.000000,387.708466 487.000000,435.531342 
	C471.091370,436.021332 455.182770,436.042664 438.809875,435.580170 
	C438.229767,419.553223 438.113861,404.010101 438.140381,388.051758 
	C438.282837,372.052002 438.282837,356.467529 438.282837,340.599091 
	C422.058594,340.599091 406.442719,340.599091 390.387360,340.599091 
	C390.387360,338.347260 390.387360,336.375366 390.387360,334.403442 
	C390.387085,242.746994 390.387878,151.090546 390.379700,59.434105 
	C390.379517,57.271149 390.278473,55.108204 390.224487,52.945251 
z"/>
<path fill="#FFFFFF" opacity="1.000000" stroke="none" 
	d="
M390.149628,52.947510 
	C390.278473,55.108204 390.379517,57.271149 390.379700,59.434105 
	C390.387878,151.090546 390.387085,242.746994 390.387360,334.403442 
	C390.387360,336.375366 390.387360,338.347260 390.387360,340.599091 
	C406.442719,340.599091 422.058594,340.599091 438.282837,340.599091 
	C438.282837,356.467529 438.282837,372.052002 437.673553,388.123352 
	C405.691162,388.610168 374.318054,388.610168 342.370789,388.610168 
	C342.370789,391.271027 342.386871,393.398468 342.368225,395.525574 
	C342.248840,409.136414 342.121735,422.747192 341.543182,436.476746 
	C245.610031,436.595490 150.130890,436.595490 54.424747,436.595490 
	C54.424747,420.451324 54.424747,404.830109 54.677258,389.151917 
	C55.006840,388.940552 55.083916,388.786133 55.619026,388.634674 
	C87.340637,388.637604 118.604218,388.637604 149.963318,388.637604 
	C149.963318,372.299133 149.963318,356.599060 149.963318,340.642456 
	C143.071457,340.642456 136.588593,340.625885 130.105835,340.645355 
	C104.962509,340.720947 79.819221,340.808044 54.548923,340.446075 
	C54.422829,324.403870 54.423729,308.806427 54.677132,293.151855 
	C55.006706,292.940369 55.083786,292.785950 55.618904,292.634583 
	C71.343452,292.637604 86.609955,292.637604 101.966339,292.637604 
	C101.966339,276.295959 101.966339,260.600494 101.966339,244.890808 
	C85.931107,244.890808 70.303513,244.890808 54.548927,244.446075 
	C54.409969,182.324005 54.400936,120.646690 54.372852,58.969383 
	C54.371948,56.988541 54.175838,55.007790 54.070732,53.026997 
	C54.182270,52.845592 54.293804,52.664188 55.101814,52.525162 
	C59.290180,52.587749 62.782051,52.618908 66.273964,52.626457 
	C94.209038,52.686863 122.144104,52.742798 150.079178,52.800106 
	C150.079178,52.800106 150.067719,52.931614 150.213867,53.393463 
	C150.360016,101.394218 150.360016,148.933136 150.360016,196.381516 
	C198.617096,196.381516 246.184097,196.381516 294.129822,196.381516 
	C294.223602,194.713043 294.375488,193.267532 294.375885,191.822006 
	C294.388458,146.701401 294.388611,101.580811 294.373138,56.460213 
	C294.372742,55.308788 294.176270,54.157425 294.071228,53.006035 
	C294.252136,52.795128 294.436798,52.587547 295.147461,52.477783 
	C299.166382,52.590908 302.662964,52.619160 306.159637,52.626663 
	C334.132812,52.686680 362.105957,52.742771 390.079132,52.800060 
	C390.079132,52.800060 390.074768,52.949764 390.149628,52.947510 
M205.633362,292.628479 
	C219.075333,292.628479 232.517303,292.628479 246.422424,292.628479 
	C246.422424,308.919769 246.422424,324.676849 246.422424,340.386688 
	C278.507599,340.386688 310.121857,340.386688 342.060516,340.386688 
	C342.060516,324.440582 342.060516,308.735504 342.060516,292.541107 
	C326.086334,292.541107 310.355072,292.541107 294.146484,292.541107 
	C294.146484,276.326263 294.146484,260.595032 294.146484,244.780121 
	C262.029785,244.780121 230.401566,244.780121 198.596069,244.780121 
	C198.596069,260.696075 198.596069,276.460114 198.596069,292.628448 
	C200.750092,292.628448 202.713043,292.628448 205.633362,292.628479 
z"/>
<path fill="#0E0D0E" opacity="1.000000" stroke="none" 
	d="
M54.424747,389.208862 
	C54.424747,404.830109 54.424747,420.451324 54.424747,436.595490 
	C150.130890,436.595490 245.610031,436.595490 341.984802,436.613556 
	C374.558441,436.682770 406.236420,436.733887 437.914398,436.785034 
	C437.944641,451.114716 437.889648,465.445435 438.063812,479.773376 
	C438.108582,483.456696 436.601044,484.993683 433.109802,484.986786 
	C431.776764,484.984161 430.443695,484.992401 429.110657,484.992401 
	C291.306274,484.992706 153.501862,484.992889 15.697466,484.989746 
	C14.032049,484.989716 12.340974,485.122131 10.706834,484.884094 
	C7.772199,484.456573 5.703361,483.077148 5.997669,479.633453 
	C6.082486,478.641022 6.007700,477.635010 6.007699,476.635223 
	C6.007557,337.997681 6.007407,199.360107 6.007963,60.722557 
	C6.007994,52.997746 6.010690,52.994068 13.633307,52.994835 
	C26.797052,52.996159 39.960796,53.002560 53.597637,53.016914 
	C54.175838,55.007790 54.371948,56.988541 54.372852,58.969383 
	C54.400936,120.646690 54.409969,182.324005 54.407818,244.899902 
	C54.387280,261.166107 54.380848,276.533722 54.258392,292.233215 
	C54.236462,292.779724 54.330547,292.994354 54.424633,293.208954 
	C54.423729,308.806427 54.422829,324.403870 54.407825,340.899902 
	C54.387325,357.166107 54.380924,372.533783 54.258507,388.233276 
	C54.236572,388.779663 54.330658,388.994263 54.424747,389.208862 
z"/>
<path fill="#0E0D0E" opacity="1.000000" stroke="none" 
	d="
M293.598022,53.001953 
	C294.176270,54.157425 294.372742,55.308788 294.373138,56.460213 
	C294.388611,101.580811 294.388458,146.701401 294.375885,191.822006 
	C294.375488,193.267532 294.223602,194.713043 294.129822,196.381516 
	C246.184097,196.381516 198.617096,196.381516 150.360016,196.381516 
	C150.360016,148.933136 150.360016,101.394218 150.279572,53.387283 
	C164.195587,52.944202 178.195053,53.140499 192.186752,52.895119 
	C196.690063,52.816147 198.153427,53.971958 198.115677,58.689098 
	C197.893036,86.514336 198.003418,114.342262 198.008011,142.169281 
	C198.009125,148.983780 198.019974,148.989761 205.033920,148.992538 
	C217.031204,148.997314 229.031631,148.837845 241.023987,149.081192 
	C245.031525,149.162491 246.107086,147.872513 246.086273,143.961639 
	C245.938141,116.135414 246.002975,88.308029 246.010666,60.481014 
	C246.012711,53.131393 246.165009,52.995468 253.633820,52.994751 
	C266.797485,52.993496 279.961121,52.996601 293.598022,53.001953 
z"/>
<path fill="#D2202C" opacity="1.000000" stroke="none" 
	d="
M438.021790,436.567566 
	C406.236420,436.733887 374.558441,436.682770 342.438843,436.494812 
	C342.121735,422.747192 342.248840,409.136414 342.368225,395.525574 
	C342.386871,393.398468 342.370789,391.271027 342.370789,388.610168 
	C374.318054,388.610168 405.691162,388.610168 437.531128,388.538574 
	C438.113861,404.010101 438.229767,419.553223 438.418610,435.562012 
	C438.491577,436.027679 438.129181,436.350128 438.021790,436.567566 
z"/>
<path fill="#0E0D0E" opacity="1.000000" stroke="none" 
	d="
M150.068634,52.344177 
	C122.144104,52.742798 94.209038,52.686863 66.273964,52.626457 
	C62.782051,52.618908 59.290180,52.587749 55.370876,52.353004 
	C54.631489,48.525810 54.093094,44.915806 54.050556,41.299973 
	C53.929295,30.993210 54.033527,20.683990 53.998169,10.375909 
	C53.985939,6.810670 55.139996,4.914807 59.220371,4.931694 
	C87.983101,5.050724 116.746758,5.044368 145.509521,4.930552 
	C148.996216,4.916755 150.107742,6.006599 150.072235,9.493077 
	C149.928391,23.623383 150.040451,37.756294 150.068634,52.344177 
z"/>
<path fill="#0E0D0E" opacity="1.000000" stroke="none" 
	d="
M390.068604,52.344131 
	C362.105957,52.742771 334.132812,52.686680 306.159637,52.626663 
	C302.662964,52.619160 299.166382,52.590908 295.317200,52.356949 
	C294.645538,49.190407 294.081421,46.241688 294.051178,43.287510 
	C293.940643,32.482117 294.074188,21.674290 293.974182,10.868689 
	C293.936676,6.813084 295.185883,4.887871 299.725159,4.913412 
	C328.153717,5.073364 356.584076,5.065379 385.012726,4.912345 
	C388.963928,4.891075 390.146759,6.048839 390.090363,9.994154 
	C389.890747,23.956137 390.040619,37.923119 390.068604,52.344131 
z"/>
<path fill="#0E0D0E" opacity="1.000000" stroke="none" 
	d="
M205.154678,292.628479 
	C202.713043,292.628448 200.750092,292.628448 198.596069,292.628448 
	C198.596069,276.460114 198.596069,260.696075 198.596069,244.780121 
	C230.401566,244.780121 262.029785,244.780121 294.146484,244.780121 
	C294.146484,260.595032 294.146484,276.326263 294.146484,292.541107 
	C310.355072,292.541107 326.086334,292.541107 342.060516,292.541107 
	C342.060516,308.735504 342.060516,324.440582 342.060516,340.386688 
	C310.121857,340.386688 278.507599,340.386688 246.422424,340.386688 
	C246.422424,324.676849 246.422424,308.919769 246.422424,292.628479 
	C232.517303,292.628479 219.075333,292.628479 205.154678,292.628479 
z"/>
<path fill="#D2202C" opacity="1.000000" stroke="none" 
	d="
M54.374523,387.901459 
	C54.380924,372.533783 54.387325,357.166107 54.534824,341.344604 
	C79.819221,340.808044 104.962509,340.720947 130.105835,340.645355 
	C136.588593,340.625885 143.071457,340.642456 149.963318,340.642456 
	C149.963318,356.599060 149.963318,372.299133 149.963318,388.637604 
	C118.604218,388.637604 87.340637,388.637604 55.549480,388.459534 
	C54.821266,388.128967 54.605473,388.002289 54.374523,387.901459 
z"/>
<path fill="#D2202C" opacity="1.000000" stroke="none" 
	d="
M54.374420,291.901367 
	C54.380848,276.533722 54.387280,261.166107 54.534813,245.344635 
	C70.303513,244.890808 85.931107,244.890808 101.966339,244.890808 
	C101.966339,260.600494 101.966339,276.295959 101.966339,292.637604 
	C86.609955,292.637604 71.343452,292.637604 55.549355,292.459473 
	C54.821182,292.128754 54.605400,292.002106 54.374420,291.901367 
z"/>
<path fill="#969596" opacity="1.000000" stroke="none" 
	d="
M54.258396,292.233215 
	C54.605400,292.002106 54.821182,292.128754 55.091312,292.456421 
	C55.083786,292.785950 55.006706,292.940369 54.677132,293.151855 
	C54.330547,292.994354 54.236462,292.779724 54.258396,292.233215 
z"/>
<path fill="#969596" opacity="1.000000" stroke="none" 
	d="
M54.258507,388.233276 
	C54.605473,388.002289 54.821266,388.128967 55.091446,388.456604 
	C55.083916,388.786133 55.006840,388.940552 54.677258,389.151917 
	C54.330658,388.994263 54.236572,388.779663 54.258507,388.233276 
z"/>
</svg>